<?xml version="1.0" encoding="UTF-8" standalone="no"?>
<!-- Created with Inkscape (http://www.inkscape.org/) -->

<svg
   xmlns:dc="http://purl.org/dc/elements/1.1/"
   xmlns:cc="http://creativecommons.org/ns#"
   xmlns:rdf="http://www.w3.org/1999/02/22-rdf-syntax-ns#"
   xmlns:svg="http://www.w3.org/2000/svg"
   xmlns="http://www.w3.org/2000/svg"
   xmlns:xlink="http://www.w3.org/1999/xlink"
   xmlns:sodipodi="http://sodipodi.sourceforge.net/DTD/sodipodi-0.dtd"
   xmlns:inkscape="http://www.inkscape.org/namespaces/inkscape"
   width="101.65424"
   height="121.50342"
   viewBox="0 0 101.65424 121.50343"
   id="svg2"
   version="1.1"
   inkscape:version="0.91 r13725"
   sodipodi:docname="giving-jar-icon-clear.svg">
  <defs
     id="defs4">
    <linearGradient
       inkscape:collect="always"
       id="linearGradient4223">
      <stop
         style="stop-color:#000000;stop-opacity:0"
         offset="0"
         id="stop4225" />
      <stop
         style="stop-color:#000000;stop-opacity:0.34901962"
         offset="1"
         id="stop4227" />
    </linearGradient>
    <radialGradient
       inkscape:collect="always"
       xlink:href="#linearGradient4223"
       id="radialGradient4231"
       cx="325.03687"
       cy="225.62085"
       fx="325.03687"
       fy="225.62085"
       r="35.125008"
       gradientTransform="matrix(0.96359993,0.34433318,-0.12893669,0.36082314,41.6353,32.578596)"
       gradientUnits="userSpaceOnUse" />
  </defs>
  <sodipodi:namedview
     id="base"
     pagecolor="#ffff35"
     bordercolor="#666666"
     borderopacity="1.0"
     inkscape:pageopacity="0"
     inkscape:pageshadow="2"
     inkscape:zoom="2.0000001"
     inkscape:cx="61.010454"
     inkscape:cy="115.76632"
     inkscape:document-units="px"
     inkscape:current-layer="layer1"
     showgrid="false"
     inkscape:window-width="1436"
     inkscape:window-height="855"
     inkscape:window-x="4"
     inkscape:window-y="1"
     inkscape:window-maximized="1"
     fit-margin-top="0"
     fit-margin-left="0"
     fit-margin-right="0"
     fit-margin-bottom="0"
     units="px" />
  <metadata
     id="metadata7">
    <rdf:RDF>
      <cc:Work
         rdf:about="">
        <dc:format>image/svg+xml</dc:format>
        <dc:type
           rdf:resource="http://purl.org/dc/dcmitype/StillImage" />
        <dc:title></dc:title>
      </cc:Work>
    </rdf:RDF>
  </metadata>
  <g
     inkscape:label="Layer 1"
     inkscape:groupmode="layer"
     id="layer1"
     transform="translate(-263.27492,-210.04766)">
    <path
       style="opacity:1;fill:url(#radialGradient4231);fill-opacity:1;stroke:#000000;stroke-width:0;stroke-linecap:square;stroke-linejoin:miter;stroke-miterlimit:4;stroke-dasharray:none;stroke-opacity:1"
       d="m 296,211.61223 64.875,19.25 -2.375,15 -67.875,-20.375 z"
       id="rect4217"
       inkscape:connector-curvature="0"
       sodipodi:nodetypes="ccccc" />
    <path
       style="color:#000000;font-style:normal;font-variant:normal;font-weight:normal;font-stretch:normal;font-size:medium;line-height:normal;font-family:sans-serif;text-indent:0;text-align:start;text-decoration:none;text-decoration-line:none;text-decoration-style:solid;text-decoration-color:#000000;letter-spacing:normal;word-spacing:normal;text-transform:none;direction:ltr;block-progression:tb;writing-mode:lr-tb;baseline-shift:baseline;text-anchor:start;white-space:normal;clip-rule:nonzero;display:inline;overflow:visible;visibility:visible;opacity:1;isolation:auto;mix-blend-mode:normal;color-interpolation:sRGB;color-interpolation-filters:linearRGB;solid-color:#000000;solid-opacity:1;fill:#000000;fill-opacity:1;fill-rule:nonzero;stroke:none;stroke-width:5;stroke-linecap:square;stroke-linejoin:miter;stroke-miterlimit:4;stroke-dasharray:none;stroke-dashoffset:0;stroke-opacity:1;color-rendering:auto;image-rendering:auto;shape-rendering:auto;text-rendering:auto;enable-background:accumulate"
       d="m 364.27815,236.85064 c 1.41245,-1.55144 0.24693,-4.24393 -0.85549,-6.23585 -1.10241,-1.99194 -2.63741,-2.71699 -4.71831,-3.83664 -2.08091,-1.11963 -4.72326,-2.27776 -7.78836,-3.46817 -6.13021,-2.3808 -13.93359,-4.87234 -21.82197,-7.05203 -7.8884,-2.17967 -15.84618,-4.04245 -22.2932,-5.13692 -3.22351,-0.54724 -6.06097,-0.90493 -8.39306,-1.00469 -1.16605,-0.0499 -2.16912,-0.11443 -3.11454,-0.0214 -0.94541,0.093 -1.83448,0.34373 -2.77476,0.92757 -1.88059,1.16768 -4.08162,2.99377 -3.62217,4.99983 0.38999,1.70278 4.61518,2.48277 4.61518,2.48277 0.90384,-1.88466 2.00516,-2.98596 1.62602,-2.75054 -0.37913,0.23541 1.06585,-0.24381 3.05994,-0.15852 1.99408,0.0853 4.68616,0.41445 7.78431,0.94041 6.19631,1.05192 14.04447,2.88311 21.80579,5.02767 7.76132,2.14457 15.45285,4.60743 21.34468,6.89565 2.94592,1.14411 5.44681,2.24948 7.22613,3.20683 1.77931,0.95737 2.82106,2.1239 2.59881,1.72231 -0.22226,-0.40158 0.22816,1.12894 0.14764,3.2411 0,0 4.01139,1.49693 5.17336,0.22062 z"
       id="path4169-7"
       inkscape:connector-curvature="0"
       sodipodi:nodetypes="asssssccsacscsssssca" />
    <path
       sodipodi:nodetypes="asssssccsacscsssssca"
       inkscape:connector-curvature="0"
       id="path4192"
       d="m 362.47815,244.05064 c 1.41245,-1.55144 0.24693,-4.24393 -0.85549,-6.23585 -1.10241,-1.99194 -2.63741,-2.71699 -4.71831,-3.83664 -2.08091,-1.11963 -4.72326,-2.27776 -7.78836,-3.46817 -6.13021,-2.3808 -13.93359,-4.87234 -21.82197,-7.05203 -7.8884,-2.17967 -15.84618,-4.04245 -22.2932,-5.13692 -3.22351,-0.54724 -6.06097,-0.90493 -8.39306,-1.00469 -1.16605,-0.0499 -2.16912,-0.11443 -3.11454,-0.0214 -0.94541,0.093 -1.83448,0.34373 -2.77476,0.92757 -1.88059,1.16768 -4.08162,2.99377 -3.62217,4.99983 0.38999,1.70278 4.61518,2.48277 4.61518,2.48277 0.90384,-1.88466 2.00516,-2.98596 1.62602,-2.75054 -0.37913,0.23541 1.06585,-0.24381 3.05994,-0.15852 1.99408,0.0853 4.68616,0.41445 7.78431,0.94041 6.19631,1.05192 14.04447,2.88311 21.80579,5.02767 7.76132,2.14458 15.45285,4.60743 21.34468,6.89565 2.94592,1.14411 5.44681,2.24948 7.22613,3.20683 1.77931,0.95737 2.82106,2.1239 2.59881,1.72231 -0.22226,-0.40158 0.22816,1.12894 0.14764,3.2411 0,0 4.01139,1.49693 5.17336,0.22062 z"
       style="color:#000000;font-style:normal;font-variant:normal;font-weight:normal;font-stretch:normal;font-size:medium;line-height:normal;font-family:sans-serif;text-indent:0;text-align:start;text-decoration:none;text-decoration-line:none;text-decoration-style:solid;text-decoration-color:#000000;letter-spacing:normal;word-spacing:normal;text-transform:none;direction:ltr;block-progression:tb;writing-mode:lr-tb;baseline-shift:baseline;text-anchor:start;white-space:normal;clip-rule:nonzero;display:inline;overflow:visible;visibility:visible;opacity:1;isolation:auto;mix-blend-mode:normal;color-interpolation:sRGB;color-interpolation-filters:linearRGB;solid-color:#000000;solid-opacity:1;fill:#000000;fill-opacity:1;fill-rule:nonzero;stroke:none;stroke-width:5;stroke-linecap:square;stroke-linejoin:miter;stroke-miterlimit:4;stroke-dasharray:none;stroke-dashoffset:0;stroke-opacity:1;color-rendering:auto;image-rendering:auto;shape-rendering:auto;text-rendering:auto;enable-background:accumulate" />
    <path
       inkscape:connector-curvature="0"
       id="path4233"
       d="m 290.60352,226.26367 c -1.54073,0.0303 -2.67323,0.22678 -3.29883,0.61523 -6.67311,4.14344 -23.43721,72.21109 -19.52539,79.27929 3.91182,7.06821 68.17455,24.82312 74.84765,20.67969 6.67311,-4.14343 23.43721,-72.20913 19.52539,-79.27734 -3.54508,-6.40556 -56.65514,-21.59015 -71.54882,-21.29687 z"
       style="opacity:1;fill:#bfbfbf;fill-opacity:0.28387097;stroke:#ffffff;stroke-width:0;stroke-linecap:square;stroke-linejoin:miter;stroke-miterlimit:4;stroke-dasharray:none;stroke-opacity:1" />
    <g
       transform="matrix(1.3793985,0.37831835,-0.37831835,1.3793985,-87.791396,-201.40889)"
       style="font-style:normal;font-weight:normal;font-size:40px;line-height:125%;font-family:sans-serif;letter-spacing:0px;word-spacing:0px;fill:#007f92;fill-opacity:1;stroke:none;stroke-width:1px;stroke-linecap:butt;stroke-linejoin:miter;stroke-opacity:1"
       id="flowRoot4183">
      <path
         style="font-style:normal;font-variant:normal;font-weight:normal;font-stretch:normal;font-size:40px;line-height:125%;font-family:'Estrangelo Edessa';-inkscape-font-specification:'Estrangelo Edessa, Normal';text-align:start;writing-mode:lr-tb;text-anchor:start;fill:#ffffff;fill-opacity:1"
         d="m 344.03551,231.08324 c -0.61993,0.18322 -1.05575,0.38821 -1.26573,0.61476 -2.23984,2.41658 -1.4694,31.81196 0.89733,34.23733 2.36672,2.42534 30.33382,2.47963 32.57365,0.063 2.23984,-2.41659 1.46903,-31.81329 -0.89769,-34.23865 -2.14485,-2.19797 -25.31498,-2.44759 -31.30756,-0.67648 z m 11.80969,3.04916 c 1.43067,-0.37534 3.0001,-0.56374 4.70909,-0.56374 1.90104,0 3.70494,0.23491 5.41067,0.70366 1.71875,0.46875 3.30071,1.15819 4.74603,2.06965 l 6.1e-4,4.19946 c -1.45834,-1.23697 -3.00787,-2.16803 -4.6485,-2.79303 -1.64062,-0.62501 -3.36625,-0.93789 -5.17615,-0.93789 -3.56772,0 -6.25,0.99637 -8.04687,2.98855 -1.78386,1.99219 -2.67582,4.96129 -2.67582,8.9066 0,3.93229 0.89116,6.89394 2.67502,8.88614 1.79687,1.99219 4.4804,2.98914 8.0481,2.98914 1.39323,0 2.63563,-0.1173 3.72938,-0.35168 1.09374,-0.24741 2.07766,-0.6255 2.95004,-1.13334 l 8e-5,-7.8315 -6.4455,-7.3e-4 -8e-5,-3.24244 10.35214,0.001 4e-5,12.51959 c -1.52343,1.08073 -3.20409,1.89992 -5.04003,2.45982 -1.83593,0.54688 -3.79559,0.82086 -5.87892,0.82087 -4.5573,-10e-6 -8.12451,-1.32805 -10.70263,-3.98429 -2.5651,-2.66928 -3.8477,-6.3804 -3.84771,-11.133 1e-5,-4.76563 1.28288,-8.47625 3.84799,-11.1325 1.61133,-1.6683 3.60858,-2.81487 5.99302,-3.44048 z"
         id="path4220"
         inkscape:connector-curvature="0" />
    </g>
    <g
       transform="matrix(1.3793985,0.37831835,-0.37831835,1.3793985,-87.791396,-201.40889)"
       style="font-style:normal;font-weight:normal;font-size:40px;line-height:125%;font-family:sans-serif;letter-spacing:0px;word-spacing:0px;fill:#ff5d95;fill-opacity:1;stroke:none;stroke-width:1px;stroke-linecap:butt;stroke-linejoin:miter;stroke-opacity:1"
       id="flowRoot4158">
      <path
         d="m 367.56648,259.09619 0,-7.83203 -6.44531,0 0,-3.24219 10.35156,0 0,12.51953 q -2.28515,1.6211 -5.03906,2.46094 -2.7539,0.82031 -5.8789,0.82031 -6.83594,0 -10.70313,-3.98437 -3.84766,-4.00391 -3.84766,-11.13281 0,-7.14844 3.84766,-11.13282 3.86719,-4.0039 10.70313,-4.0039 2.85156,0 5.41015,0.70312 2.57813,0.70313 4.7461,2.07032 l 0,4.19921 q -2.1875,-1.85546 -4.64844,-2.79296 -2.46094,-0.9375 -5.17578,-0.9375 -5.35157,0 -8.04688,2.98828 -2.67578,2.98828 -2.67578,8.90625 0,5.89843 2.67578,8.88672 2.69531,2.98828 8.04688,2.98828 2.08984,0 3.73047,-0.35157 1.64062,-0.37109 2.94921,-1.13281 z"
         style="font-style:normal;font-variant:normal;font-weight:normal;font-stretch:normal;font-size:40px;line-height:125%;font-family:'Estrangelo Edessa';-inkscape-font-specification:'Estrangelo Edessa, Normal';text-align:start;writing-mode:lr-tb;text-anchor:start;fill:#ff5d95;fill-opacity:1"
         id="path4282"
         inkscape:connector-curvature="0" />
    </g>
    <path
       style="opacity:1;fill:#000000;fill-opacity:0.16025642;stroke:#ffffff;stroke-width:0;stroke-linecap:square;stroke-linejoin:miter;stroke-miterlimit:4;stroke-dasharray:none;stroke-opacity:1"
       d="m 317.69882,295.20482 c -16.93054,9.83725 -52.75941,10.33639 -52.75941,10.33639 -7.92777,1.55317 68.1726,24.82311 74.8457,20.67968 6.67311,-4.14344 23.43721,-72.20913 19.52539,-79.27734 0,0 -24.68114,38.42401 -41.61168,48.26127 z"
       id="rect4164"
       inkscape:connector-curvature="0"
       sodipodi:nodetypes="zsscz" />
    <path
       sodipodi:type="star"
       style="opacity:1;fill:none;fill-opacity:1;stroke:#000000;stroke-width:5.00039482;stroke-linecap:square;stroke-linejoin:miter;stroke-miterlimit:4;stroke-dasharray:none;stroke-opacity:1"
       id="path4169"
       sodipodi:sides="4"
       sodipodi:cx="620.13263"
       sodipodi:cy="431.52246"
       sodipodi:r1="47.539455"
       sodipodi:r2="23.76973"
       sodipodi:arg1="1.0405806"
       sodipodi:arg2="1.8259788"
       inkscape:flatsided="true"
       inkscape:rounded="0.1"
       inkscape:randomized="0"
       d="m 644.17426,472.53465 c -5.8,3.4 -61.65382,-11.17056 -65.05382,-16.97056 -3.4,-5.8 11.17056,-61.65382 16.97056,-65.05382 5.8,-3.4 61.65382,11.17056 65.05382,16.97056 3.4,5.8 -11.17056,61.65382 -16.97056,65.05382 z"
       inkscape:transform-center-x="-0.52162337"
       inkscape:transform-center-y="-1.282787"
       transform="matrix(1.1505353,0,0,1.2186572,-399.51886,-248.0189)" />
  </g>
</svg>
