<?xml version="1.0" encoding="UTF-8" standalone="no"?>
<!-- Created with Inkscape (http://www.inkscape.org/) -->

<svg
   xmlns:osb="http://www.openswatchbook.org/uri/2009/osb"
   xmlns:dc="http://purl.org/dc/elements/1.1/"
   xmlns:cc="http://creativecommons.org/ns#"
   xmlns:rdf="http://www.w3.org/1999/02/22-rdf-syntax-ns#"
   xmlns:svg="http://www.w3.org/2000/svg"
   xmlns="http://www.w3.org/2000/svg"
   xmlns:xlink="http://www.w3.org/1999/xlink"
   xmlns:sodipodi="http://sodipodi.sourceforge.net/DTD/sodipodi-0.dtd"
   xmlns:inkscape="http://www.inkscape.org/namespaces/inkscape"
   width="92mm"
   height="54mm"
   viewBox="0 0 325.98425 191.33858"
   id="svg2"
   version="1.1"
   inkscape:version="0.91 r13725"
   sodipodi:docname="erik-gillespie.svg">
  <defs
     id="defs4">
    <linearGradient
       osb:paint="solid"
       id="linearGradient6163">
      <stop
         id="stop6165"
         offset="0"
         style="stop-color:#242424;stop-opacity:1;" />
    </linearGradient>
    <linearGradient
       gradientUnits="userSpaceOnUse"
       y2="241.29906"
       x2="398.44223"
       y1="241.29906"
       x1="372.97348"
       id="linearGradient6167"
       xlink:href="#linearGradient6163"
       inkscape:collect="always" />
    <linearGradient
       inkscape:collect="always"
       xlink:href="#linearGradient6163"
       id="linearGradient4428"
       gradientUnits="userSpaceOnUse"
       x1="372.97348"
       y1="241.29906"
       x2="398.44223"
       y2="241.29906" />
  </defs>
  <sodipodi:namedview
     id="base"
     pagecolor="#ffffff"
     bordercolor="#666666"
     borderopacity="1.0"
     inkscape:pageopacity="0.0"
     inkscape:pageshadow="2"
     inkscape:zoom="2.108408"
     inkscape:cx="125.61496"
     inkscape:cy="125.56356"
     inkscape:document-units="px"
     inkscape:current-layer="layer1"
     showgrid="false"
     inkscape:window-width="1436"
     inkscape:window-height="855"
     inkscape:window-x="4"
     inkscape:window-y="1"
     inkscape:window-maximized="1"
     inkscape:snap-page="true">
    <sodipodi:guide
       position="10.629921,10.629921"
       orientation="0,1"
       id="guide4136"
       inkscape:label=""
       inkscape:color="rgb(0,0,255)" />
    <sodipodi:guide
       position="315.35433,10.629921"
       orientation="1,0"
       id="guide4138"
       inkscape:label=""
       inkscape:color="rgb(0,0,255)" />
    <sodipodi:guide
       position="315.35433,180.70866"
       orientation="0,1"
       id="guide4140"
       inkscape:label=""
       inkscape:color="rgb(0,0,255)" />
    <sodipodi:guide
       position="10.629921,180.70866"
       orientation="1,0"
       id="guide4142"
       inkscape:label=""
       inkscape:color="rgb(0,0,255)" />
  </sodipodi:namedview>
  <metadata
     id="metadata7">
    <rdf:RDF>
      <cc:Work
         rdf:about="">
        <dc:format>image/svg+xml</dc:format>
        <dc:type
           rdf:resource="http://purl.org/dc/dcmitype/StillImage" />
        <dc:title></dc:title>
      </cc:Work>
    </rdf:RDF>
  </metadata>
  <g
     inkscape:label="Layer 1"
     inkscape:groupmode="layer"
     id="layer1"
     transform="translate(0,-861.02362)">
    <rect
       style="opacity:1;fill:#ebfaff;fill-opacity:1;stroke:none;stroke-width:2;stroke-linecap:round;stroke-linejoin:round;stroke-miterlimit:4;stroke-dasharray:none;stroke-opacity:1"
       id="rect4163"
       width="325.98425"
       height="95.669289"
       x="4.8059178e-07"
       y="861.02362" />
    <path
       style="fill:none;fill-rule:evenodd;stroke:#eaeaea;stroke-width:1px;stroke-linecap:butt;stroke-linejoin:miter;stroke-opacity:1"
       d="m 0,956.19291 325.98425,0"
       id="path4430"
       inkscape:connector-curvature="0" />
    <path
       style="opacity:1;fill:#ffffff;fill-opacity:1;stroke:#000000;stroke-width:0;stroke-linecap:square;stroke-linejoin:miter;stroke-miterlimit:4;stroke-dasharray:none;stroke-opacity:1"
       d="m 250.32282,894.00839 45.4049,13.47275 -1.66223,10.49824 -47.50454,-14.26011 z"
       id="rect4217"
       inkscape:connector-curvature="0"
       sodipodi:nodetypes="ccccc" />
    <path
       style="opacity:1;fill:#ffffff;fill-opacity:1;stroke:#ffffff;stroke-width:0;stroke-linecap:square;stroke-linejoin:miter;stroke-miterlimit:4;stroke-dasharray:none;stroke-opacity:1"
       d="m 246.54592,904.26268 c -1.07834,0.0212 -1.87095,0.15872 -2.3088,0.43059 -4.67039,2.89992 -16.4033,50.5393 -13.66548,55.48621 2.73781,4.94692 47.71419,17.37328 52.38458,14.47336 4.67039,-2.89991 16.4033,-50.53792 13.66548,-55.48484 -2.48114,-4.48314 -39.65195,-15.11058 -50.07578,-14.90532 z"
       id="rect4174"
       inkscape:connector-curvature="0" />
    <path
       sodipodi:nodetypes="ccccc"
       inkscape:connector-curvature="0"
       id="path4867"
       d="m 250.32282,894.00839 45.4049,13.47275 -1.66223,10.49824 -47.50454,-14.26011 z"
       style="opacity:1;fill:none;fill-opacity:1;stroke:#000000;stroke-width:0;stroke-linecap:square;stroke-linejoin:miter;stroke-miterlimit:4;stroke-dasharray:none;stroke-opacity:1" />
    <path
       style="color:#000000;font-style:normal;font-variant:normal;font-weight:normal;font-stretch:normal;font-size:medium;line-height:normal;font-family:sans-serif;text-indent:0;text-align:start;text-decoration:none;text-decoration-line:none;text-decoration-style:solid;text-decoration-color:#000000;letter-spacing:normal;word-spacing:normal;text-transform:none;direction:ltr;block-progression:tb;writing-mode:lr-tb;baseline-shift:baseline;text-anchor:start;white-space:normal;clip-rule:nonzero;display:inline;overflow:visible;visibility:visible;opacity:1;isolation:auto;mix-blend-mode:normal;color-interpolation:sRGB;color-interpolation-filters:linearRGB;solid-color:#000000;solid-opacity:1;fill:#242424;fill-opacity:1;fill-rule:nonzero;stroke:none;stroke-width:5;stroke-linecap:square;stroke-linejoin:miter;stroke-miterlimit:4;stroke-dasharray:none;stroke-dashoffset:0;stroke-opacity:1;color-rendering:auto;image-rendering:auto;shape-rendering:auto;text-rendering:auto;enable-background:accumulate"
       d="m 298.10952,911.67232 c 0.98855,-1.08582 0.17282,-2.97025 -0.59874,-4.36436 -0.77156,-1.39413 -1.84588,-1.90158 -3.30226,-2.6852 -1.4564,-0.78361 -3.30573,-1.59417 -5.45094,-2.42731 -4.29043,-1.66628 -9.75188,-3.41007 -15.27283,-4.9356 -5.52095,-1.52551 -11.09046,-2.82924 -15.60262,-3.59524 -2.25608,-0.383 -4.24197,-0.63335 -5.87416,-0.70317 -0.8161,-0.0349 -1.51813,-0.0801 -2.17981,-0.015 -0.66168,0.0651 -1.28393,0.24057 -1.94201,0.64919 -1.31619,0.81724 -2.85666,2.09529 -2.5351,3.49929 0.27295,1.19175 3.23009,1.73765 3.23009,1.73765 0.63258,-1.31904 1.40338,-2.08982 1.13802,-1.92506 -0.26534,0.16476 0.74597,-0.17063 2.1416,-0.11094 1.39562,0.0597 3.27977,0.29007 5.44811,0.65818 4.33669,0.73622 9.82948,2.01784 15.26149,3.51878 5.43202,1.50094 10.81519,3.22466 14.93878,4.82614 2.0618,0.80075 3.81213,1.57438 5.05744,2.24441 1.24531,0.67004 1.97441,1.48648 1.81887,1.20541 -0.15556,-0.28106 0.15968,0.79013 0.10333,2.26839 0,0 2.8075,1.04768 3.62074,0.15441 z"
       id="path4169-7"
       inkscape:connector-curvature="0"
       sodipodi:nodetypes="asssssccsacscsssssca" />
    <path
       sodipodi:nodetypes="asssssccsacscsssssca"
       inkscape:connector-curvature="0"
       id="path4192"
       d="m 296.84973,916.71148 c 0.98855,-1.08583 0.17283,-2.97026 -0.59874,-4.36437 -0.77156,-1.39412 -1.84588,-1.90157 -3.30226,-2.68519 -1.4564,-0.78361 -3.30573,-1.59417 -5.45094,-2.42732 -4.29043,-1.66628 -9.75188,-3.41006 -15.27282,-4.93559 -5.52096,-1.52552 -11.09047,-2.82924 -15.60263,-3.59524 -2.25608,-0.38301 -4.24197,-0.63335 -5.87416,-0.70317 -0.8161,-0.0349 -1.51813,-0.0801 -2.17981,-0.015 -0.66168,0.0651 -1.28392,0.24057 -1.94201,0.64919 -1.31619,0.81724 -2.85666,2.09529 -2.53509,3.4993 0.27294,1.19175 3.23008,1.73765 3.23008,1.73765 0.63258,-1.31904 1.40338,-2.08983 1.13802,-1.92506 -0.26534,0.16476 0.74597,-0.17064 2.1416,-0.11094 1.39563,0.0597 3.27977,0.29006 5.44811,0.65817 4.33669,0.73622 9.82948,2.01784 15.2615,3.51878 5.43201,1.50096 10.81518,3.22466 14.93877,4.82615 2.0618,0.80074 3.81213,1.57437 5.05744,2.2444 1.24531,0.67005 1.97442,1.48649 1.81887,1.20542 -0.15556,-0.28106 0.15968,0.79013 0.10333,2.26839 0,0 2.8075,1.04768 3.62074,0.15441 z"
       style="color:#000000;font-style:normal;font-variant:normal;font-weight:normal;font-stretch:normal;font-size:medium;line-height:normal;font-family:sans-serif;text-indent:0;text-align:start;text-decoration:none;text-decoration-line:none;text-decoration-style:solid;text-decoration-color:#000000;letter-spacing:normal;word-spacing:normal;text-transform:none;direction:ltr;block-progression:tb;writing-mode:lr-tb;baseline-shift:baseline;text-anchor:start;white-space:normal;clip-rule:nonzero;display:inline;overflow:visible;visibility:visible;opacity:1;isolation:auto;mix-blend-mode:normal;color-interpolation:sRGB;color-interpolation-filters:linearRGB;solid-color:#000000;solid-opacity:1;fill:#242424;fill-opacity:1;fill-rule:nonzero;stroke:none;stroke-width:5;stroke-linecap:square;stroke-linejoin:miter;stroke-miterlimit:4;stroke-dasharray:none;stroke-dashoffset:0;stroke-opacity:1;color-rendering:auto;image-rendering:auto;shape-rendering:auto;text-rendering:auto;enable-background:accumulate" />
    <path
       style="opacity:0.5;fill:#52c6d2;fill-opacity:0.58039218;stroke:#ffffff;stroke-width:0;stroke-linecap:square;stroke-linejoin:miter;stroke-miterlimit:4;stroke-dasharray:none;stroke-opacity:1"
       d="m 265.50945,952.51341 c -11.84939,6.88492 -36.9254,7.23426 -36.9254,7.23426 -5.54851,1.08704 47.71283,17.37327 52.38321,14.47335 4.6704,-2.89992 16.4033,-50.53793 13.66549,-55.48484 0,0 -17.27391,26.8923 -29.1233,33.77723 z"
       id="rect4164"
       inkscape:connector-curvature="0"
       sodipodi:nodetypes="zsscz" />
    <g
       transform="matrix(0.9654173,0.26477851,-0.26477851,0.9654173,-46.281497,604.94201)"
       style="font-style:normal;font-weight:normal;font-size:40px;line-height:125%;font-family:sans-serif;letter-spacing:0px;word-spacing:0px;fill:#87decd;fill-opacity:1;stroke:none;stroke-width:1px;stroke-linecap:butt;stroke-linejoin:miter;stroke-opacity:1"
       id="flowRoot4183">
      <path
         style="font-style:normal;font-variant:normal;font-weight:normal;font-stretch:normal;font-size:40px;line-height:125%;font-family:'Estrangelo Edessa';-inkscape-font-specification:'Estrangelo Edessa, Normal';text-align:start;writing-mode:lr-tb;text-anchor:start;fill:#00c5fe;fill-opacity:1"
         d="m 371.00501,223.6865 c -0.61993,0.18322 -1.05575,0.38821 -1.26573,0.61476 -2.23984,2.41658 -1.4694,31.81196 0.89733,34.23733 2.36672,2.42534 30.33382,2.47963 32.57365,0.063 2.23984,-2.41659 1.46903,-31.81329 -0.89769,-34.23865 -2.14485,-2.19797 -25.31498,-2.44759 -31.30756,-0.67648 z m 11.80969,3.04916 c 1.43067,-0.37534 3.0001,-0.56374 4.70909,-0.56374 1.90104,0 3.70494,0.23491 5.41067,0.70366 1.71875,0.46875 3.30071,1.15819 4.74603,2.06965 l 6.1e-4,4.19946 c -1.45834,-1.23697 -3.00787,-2.16803 -4.6485,-2.79303 -1.64062,-0.62501 -3.36625,-0.93789 -5.17615,-0.93789 -3.56772,0 -6.25,0.99637 -8.04687,2.98855 -1.78386,1.99219 -2.67582,4.96129 -2.67582,8.9066 0,3.93229 0.89116,6.89394 2.67502,8.88614 1.79687,1.99219 4.4804,2.98914 8.0481,2.98914 1.39323,0 2.63563,-0.1173 3.72938,-0.35168 1.09374,-0.24741 2.07766,-0.6255 2.95004,-1.13334 l 8e-5,-7.8315 -6.4455,-7.3e-4 -8e-5,-3.24244 10.35214,0.001 4e-5,12.51959 c -1.52343,1.08073 -3.20409,1.89992 -5.04003,2.45982 -1.83593,0.54688 -3.79559,0.82086 -5.87892,0.82087 -4.5573,-1e-5 -8.12451,-1.32805 -10.70263,-3.98429 -2.5651,-2.66928 -3.8477,-6.3804 -3.84771,-11.133 1e-5,-4.76563 1.28288,-8.47625 3.84799,-11.1325 1.61133,-1.6683 3.60858,-2.81487 5.99302,-3.44048 z"
         id="path4220"
         inkscape:connector-curvature="0" />
    </g>
    <g
       transform="matrix(0.9654173,0.26477851,-0.26477851,0.9654173,-46.281497,604.94201)"
       style="font-style:normal;font-weight:normal;font-size:40px;line-height:125%;font-family:sans-serif;letter-spacing:0px;word-spacing:0px;fill:url(#linearGradient6167);fill-opacity:1;stroke:none;stroke-width:1px;stroke-linecap:butt;stroke-linejoin:miter;stroke-opacity:1"
       id="flowRoot4158">
      <path
         d="m 394.53598,251.69945 0,-7.83203 -6.44531,0 0,-3.24219 10.35156,0 0,12.51953 q -2.28515,1.6211 -5.03906,2.46094 -2.7539,0.82031 -5.8789,0.82031 -6.83594,0 -10.70313,-3.98437 -3.84766,-4.00391 -3.84766,-11.13281 0,-7.14844 3.84766,-11.13282 3.86719,-4.0039 10.70313,-4.0039 2.85156,0 5.41015,0.70312 2.57813,0.70313 4.7461,2.07032 l 0,4.19921 q -2.1875,-1.85546 -4.64844,-2.79296 -2.46094,-0.9375 -5.17578,-0.9375 -5.35157,0 -8.04688,2.98828 -2.67578,2.98828 -2.67578,8.90625 0,5.89843 2.67578,8.88672 2.69531,2.98828 8.04688,2.98828 2.08984,0 3.73047,-0.35157 1.64062,-0.37109 2.94921,-1.13281 z"
         style="font-style:normal;font-variant:normal;font-weight:normal;font-stretch:normal;font-size:40px;line-height:125%;font-family:'Estrangelo Edessa';-inkscape-font-specification:'Estrangelo Edessa, Normal';text-align:start;writing-mode:lr-tb;text-anchor:start;fill:url(#linearGradient4428);fill-opacity:1"
         id="path4282"
         inkscape:connector-curvature="0" />
    </g>
    <path
       sodipodi:type="star"
       style="opacity:1;fill:none;fill-opacity:1;stroke:#242424;stroke-width:5.00039482;stroke-linecap:square;stroke-linejoin:miter;stroke-miterlimit:4;stroke-dasharray:none;stroke-opacity:1"
       id="path4169"
       sodipodi:sides="4"
       sodipodi:cx="620.13263"
       sodipodi:cy="431.52246"
       sodipodi:r1="47.539455"
       sodipodi:r2="23.76973"
       sodipodi:arg1="1.0405806"
       sodipodi:arg2="1.8259788"
       inkscape:flatsided="true"
       inkscape:rounded="0.1"
       inkscape:randomized="0"
       d="m 644.17426,472.53465 c -5.8,3.4 -61.65382,-11.17056 -65.05382,-16.97056 -3.4,-5.8 11.17056,-61.65382 16.97056,-65.05382 5.8,-3.4 61.65382,11.17056 65.05382,16.97056 3.4,5.8 -11.17056,61.65382 -16.97056,65.05382 z"
       inkscape:transform-center-x="-0.52162337"
       inkscape:transform-center-y="-1.282787"
       transform="matrix(0.80523988,0,0,0.85291723,-236.45888,572.32047)" />
    <text
       xml:space="preserve"
       style="font-style:normal;font-weight:normal;font-size:40px;line-height:125%;font-family:sans-serif;letter-spacing:0px;word-spacing:0px;fill:#000000;fill-opacity:1;stroke:none;stroke-width:1px;stroke-linecap:butt;stroke-linejoin:miter;stroke-opacity:1"
       x="22.698769"
       y="908.05835"
       id="text4432"
       sodipodi:linespacing="125%"><tspan
         sodipodi:role="line"
         id="tspan4434"
         x="22.698769"
         y="908.05835"
         style="font-style:normal;font-variant:normal;font-weight:normal;font-stretch:normal;font-size:35px;font-family:'Estrangelo Edessa';-inkscape-font-specification:'Estrangelo Edessa';fill:#404040;fill-opacity:1">Giving Jar</tspan></text>
    <text
       xml:space="preserve"
       style="font-style:normal;font-weight:normal;font-size:40px;line-height:100%;font-family:sans-serif;letter-spacing:0px;word-spacing:0px;fill:#000000;fill-opacity:1;stroke:none;stroke-width:1px;stroke-linecap:butt;stroke-linejoin:miter;stroke-opacity:1"
       x="25.068783"
       y="928.76111"
       id="text4432-8"
       sodipodi:linespacing="100%"><tspan
         sodipodi:role="line"
         x="25.068783"
         y="928.76111"
         style="font-style:italic;font-variant:normal;font-weight:normal;font-stretch:normal;font-size:12.5px;line-height:100%;font-family:'Estrangelo Edessa';-inkscape-font-specification:'Estrangelo Edessa';fill:#606060;fill-opacity:1"
         id="tspan4192">Promoting Lansing charities</tspan><tspan
         sodipodi:role="line"
         x="25.068783"
         y="941.26111"
         style="font-style:italic;font-variant:normal;font-weight:normal;font-stretch:normal;font-size:12.5px;line-height:100%;font-family:'Estrangelo Edessa';-inkscape-font-specification:'Estrangelo Edessa';fill:#606060;fill-opacity:1"
         id="tspan4196">and online giving.</tspan></text>
    <text
       xml:space="preserve"
       style="font-style:normal;font-weight:normal;font-size:40px;line-height:125%;font-family:sans-serif;letter-spacing:0px;word-spacing:0px;fill:#000000;fill-opacity:1;stroke:none;stroke-width:1px;stroke-linecap:butt;stroke-linejoin:miter;stroke-opacity:1"
       x="23.157753"
       y="1009.0203"
       id="text4198"
       sodipodi:linespacing="125%"><tspan
         sodipodi:role="line"
         id="tspan4200"
         x="23.157753"
         y="1009.0203"
         style="font-size:15px;fill:#404040;fill-opacity:1">Erik Gillespie</tspan></text>
    <flowRoot
       xml:space="preserve"
       id="flowRoot4202"
       style="font-style:normal;font-weight:normal;font-size:40px;line-height:125%;font-family:sans-serif;letter-spacing:0px;word-spacing:0px;fill:#000000;fill-opacity:1;stroke:none;stroke-width:1px;stroke-linecap:butt;stroke-linejoin:miter;stroke-opacity:1"
       transform="translate(0,861.02362)"><flowRegion
         id="flowRegion4204"><rect
           id="rect4206"
           width="257.06601"
           height="41.542145"
           x="38.41761"
           y="139.16652" /></flowRegion><flowPara
         id="flowPara4208">Direct</flowPara></flowRoot>    <text
       xml:space="preserve"
       style="font-style:normal;font-weight:normal;font-size:40px;line-height:150%;font-family:sans-serif;letter-spacing:0px;word-spacing:0px;fill:#000000;fill-opacity:1;stroke:none;stroke-width:1px;stroke-linecap:butt;stroke-linejoin:miter;stroke-opacity:1"
       x="299.25363"
       y="1021.2686"
       id="text4210"
       sodipodi:linespacing="150%"><tspan
         sodipodi:role="line"
         x="299.25363"
         y="1021.2686"
         style="font-size:7.5px;line-height:150%;text-align:end;text-anchor:end;fill:#404040;fill-opacity:1"
         id="tspan4218">http://blog.givingjar.org</tspan><tspan
         sodipodi:role="line"
         x="299.25363"
         y="1032.5186"
         style="font-size:7.5px;line-height:150%;text-align:end;text-anchor:end;fill:#404040;fill-opacity:1"
         id="tspan4261">facebook.com/GivingJarOrg</tspan></text>
    <text
       xml:space="preserve"
       style="font-style:normal;font-weight:normal;font-size:40px;line-height:150%;font-family:sans-serif;letter-spacing:0px;word-spacing:0px;fill:#000000;fill-opacity:1;stroke:none;stroke-width:1px;stroke-linecap:butt;stroke-linejoin:miter;stroke-opacity:1"
       x="24.216103"
       y="1021.2686"
       id="text4210-9"
       sodipodi:linespacing="150%"><tspan
         sodipodi:role="line"
         x="24.216103"
         y="1021.2686"
         style="font-size:7.5px;line-height:150%;text-align:start;text-anchor:start;fill:#404040;fill-opacity:1"
         id="tspan4218-6">Director and Writer</tspan><tspan
         sodipodi:role="line"
         x="24.216103"
         y="1032.5186"
         style="font-size:7.5px;line-height:150%;text-align:start;text-anchor:start;fill:#404040;fill-opacity:1"
         id="tspan4257">erik.gillespie@givingjar.org</tspan></text>
  </g>
</svg>
