<?xml version="1.0" encoding="UTF-8" standalone="no"?>
<!-- Created with Inkscape (http://www.inkscape.org/) -->

<svg
   xmlns:dc="http://purl.org/dc/elements/1.1/"
   xmlns:cc="http://creativecommons.org/ns#"
   xmlns:rdf="http://www.w3.org/1999/02/22-rdf-syntax-ns#"
   xmlns:svg="http://www.w3.org/2000/svg"
   xmlns="http://www.w3.org/2000/svg"
   xmlns:sodipodi="http://sodipodi.sourceforge.net/DTD/sodipodi-0.dtd"
   xmlns:inkscape="http://www.inkscape.org/namespaces/inkscape"
   width="28.689024mm"
   height="34.290901mm"
   viewBox="0 0 101.65402 121.50319"
   id="svg2"
   version="1.1"
   inkscape:version="0.91 r13725"
   sodipodi:docname="giving-jar-icon-1.0.1.svg">
  <defs
     id="defs4" />
  <sodipodi:namedview
     id="base"
     pagecolor="#b5d6f3"
     bordercolor="#666666"
     borderopacity="1.0"
     inkscape:pageopacity="0"
     inkscape:pageshadow="2"
     inkscape:zoom="1.4142136"
     inkscape:cx="134.85523"
     inkscape:cy="49.20446"
     inkscape:document-units="px"
     inkscape:current-layer="layer1"
     showgrid="false"
     inkscape:window-width="1436"
     inkscape:window-height="855"
     inkscape:window-x="4"
     inkscape:window-y="1"
     inkscape:window-maximized="1"
     fit-margin-top="0"
     fit-margin-left="0"
     fit-margin-right="0"
     fit-margin-bottom="0" />
  <metadata
     id="metadata7">
    <rdf:RDF>
      <cc:Work
         rdf:about="">
        <dc:format>image/svg+xml</dc:format>
        <dc:type
           rdf:resource="http://purl.org/dc/dcmitype/StillImage" />
        <dc:title></dc:title>
      </cc:Work>
    </rdf:RDF>
  </metadata>
  <g
     inkscape:label="Layer 1"
     inkscape:groupmode="layer"
     id="layer1"
     transform="translate(-263.27515,-210.04766)">
    <path
       style="color:#000000;font-style:normal;font-variant:normal;font-weight:normal;font-stretch:normal;font-size:medium;line-height:normal;font-family:sans-serif;text-indent:0;text-align:start;text-decoration:none;text-decoration-line:none;text-decoration-style:solid;text-decoration-color:#000000;letter-spacing:normal;word-spacing:normal;text-transform:none;direction:ltr;block-progression:tb;writing-mode:lr-tb;baseline-shift:baseline;text-anchor:start;white-space:normal;clip-rule:nonzero;display:inline;overflow:visible;visibility:visible;opacity:1;isolation:auto;mix-blend-mode:normal;color-interpolation:sRGB;color-interpolation-filters:linearRGB;solid-color:#000000;solid-opacity:1;fill:#000000;fill-opacity:1;fill-rule:nonzero;stroke:none;stroke-width:5;stroke-linecap:square;stroke-linejoin:miter;stroke-miterlimit:4;stroke-dasharray:none;stroke-dashoffset:0;stroke-opacity:1;color-rendering:auto;image-rendering:auto;shape-rendering:auto;text-rendering:auto;enable-background:accumulate"
       d="m 364.27815,236.85064 c 1.41245,-1.55144 0.24693,-4.24393 -0.85549,-6.23585 -1.10241,-1.99194 -2.63741,-2.71699 -4.71831,-3.83664 -2.08091,-1.11963 -4.72326,-2.27776 -7.78836,-3.46817 -6.13021,-2.3808 -13.93359,-4.87234 -21.82197,-7.05203 -7.8884,-2.17967 -15.84618,-4.04245 -22.2932,-5.13692 -3.22351,-0.54724 -6.06097,-0.90493 -8.39306,-1.00469 -1.16605,-0.0499 -2.16912,-0.11443 -3.11454,-0.0214 -0.94541,0.093 -1.83448,0.34373 -2.77476,0.92757 -1.88059,1.16768 -4.08162,2.99377 -3.62217,4.99983 0.38999,1.70278 4.61518,2.48277 4.61518,2.48277 0.90384,-1.88466 2.00516,-2.98596 1.62602,-2.75054 -0.37913,0.23541 1.06585,-0.24381 3.05994,-0.15852 1.99408,0.0853 4.68616,0.41445 7.78431,0.94041 6.19631,1.05192 14.04447,2.88311 21.80579,5.02767 7.76132,2.14457 15.45285,4.60743 21.34468,6.89565 2.94592,1.14411 5.44681,2.24948 7.22613,3.20683 1.77931,0.95737 2.82106,2.1239 2.59881,1.72231 -0.22226,-0.40158 0.22816,1.12894 0.14764,3.2411 0,0 4.01139,1.49693 5.17336,0.22062 z"
       id="path4169-7"
       inkscape:connector-curvature="0"
       sodipodi:nodetypes="asssssccsacscsssssca" />
    <path
       sodipodi:nodetypes="asssssccsacscsssssca"
       inkscape:connector-curvature="0"
       id="path4192"
       d="m 362.47815,244.05064 c 1.41245,-1.55144 0.24693,-4.24393 -0.85549,-6.23585 -1.10241,-1.99194 -2.63741,-2.71699 -4.71831,-3.83664 -2.08091,-1.11963 -4.72326,-2.27776 -7.78836,-3.46817 -6.13021,-2.3808 -13.93359,-4.87234 -21.82197,-7.05203 -7.8884,-2.17967 -15.84618,-4.04245 -22.2932,-5.13692 -3.22351,-0.54724 -6.06097,-0.90493 -8.39306,-1.00469 -1.16605,-0.0499 -2.16912,-0.11443 -3.11454,-0.0214 -0.94541,0.093 -1.83448,0.34373 -2.77476,0.92757 -1.88059,1.16768 -4.08162,2.99377 -3.62217,4.99983 0.38999,1.70278 4.61518,2.48277 4.61518,2.48277 0.90384,-1.88466 2.00516,-2.98596 1.62602,-2.75054 -0.37913,0.23541 1.06585,-0.24381 3.05994,-0.15852 1.99408,0.0853 4.68616,0.41445 7.78431,0.94041 6.19631,1.05192 14.04447,2.88311 21.80579,5.02767 7.76132,2.14458 15.45285,4.60743 21.34468,6.89565 2.94592,1.14411 5.44681,2.24948 7.22613,3.20683 1.77931,0.95737 2.82106,2.1239 2.59881,1.72231 -0.22226,-0.40158 0.22816,1.12894 0.14764,3.2411 0,0 4.01139,1.49693 5.17336,0.22062 z"
       style="color:#000000;font-style:normal;font-variant:normal;font-weight:normal;font-stretch:normal;font-size:medium;line-height:normal;font-family:sans-serif;text-indent:0;text-align:start;text-decoration:none;text-decoration-line:none;text-decoration-style:solid;text-decoration-color:#000000;letter-spacing:normal;word-spacing:normal;text-transform:none;direction:ltr;block-progression:tb;writing-mode:lr-tb;baseline-shift:baseline;text-anchor:start;white-space:normal;clip-rule:nonzero;display:inline;overflow:visible;visibility:visible;opacity:1;isolation:auto;mix-blend-mode:normal;color-interpolation:sRGB;color-interpolation-filters:linearRGB;solid-color:#000000;solid-opacity:1;fill:#000000;fill-opacity:1;fill-rule:nonzero;stroke:none;stroke-width:5;stroke-linecap:square;stroke-linejoin:miter;stroke-miterlimit:4;stroke-dasharray:none;stroke-dashoffset:0;stroke-opacity:1;color-rendering:auto;image-rendering:auto;shape-rendering:auto;text-rendering:auto;enable-background:accumulate" />
    <path
       sodipodi:type="star"
       style="opacity:1;fill:none;fill-opacity:1;stroke:#000000;stroke-width:5;stroke-linecap:square;stroke-linejoin:miter;stroke-miterlimit:4;stroke-dasharray:none;stroke-opacity:1"
       id="path4169"
       sodipodi:sides="4"
       sodipodi:cx="620.13263"
       sodipodi:cy="431.52246"
       sodipodi:r1="47.539455"
       sodipodi:r2="23.76973"
       sodipodi:arg1="1.0405806"
       sodipodi:arg2="1.8259788"
       inkscape:flatsided="true"
       inkscape:rounded="0.1"
       inkscape:randomized="0"
       d="m 644.17426,472.53465 c -5.8,3.4 -61.65382,-11.17056 -65.05382,-16.97056 -3.4,-5.8 11.17056,-61.65382 16.97056,-65.05382 5.8,-3.4 61.65382,11.17056 65.05382,16.97056 3.4,5.8 -11.17056,61.65382 -16.97056,65.05382 z"
       inkscape:transform-center-x="-0.52162337"
       inkscape:transform-center-y="-1.282787"
       transform="matrix(1.1505353,0,0,1.2186572,-399.51886,-248.0189)" />
    <g
       id="g4233"
       transform="translate(-200,0)">
      <path
         sodipodi:type="star"
         style="opacity:1;fill:#000000;fill-opacity:1;stroke:#000000;stroke-width:5;stroke-linecap:square;stroke-linejoin:miter;stroke-miterlimit:4;stroke-dasharray:none;stroke-opacity:1"
         id="path4237"
         sodipodi:sides="4"
         sodipodi:cx="620.13263"
         sodipodi:cy="431.52246"
         sodipodi:r1="47.539455"
         sodipodi:r2="23.76973"
         sodipodi:arg1="1.0405806"
         sodipodi:arg2="1.8259788"
         inkscape:flatsided="true"
         inkscape:rounded="0.1"
         inkscape:randomized="0"
         d="m 644.17426,472.53465 c -5.8,3.4 -61.65382,-11.17056 -65.05382,-16.97056 -3.4,-5.8 11.17056,-61.65382 16.97056,-65.05382 5.8,-3.4 61.65382,11.17056 65.05382,16.97056 3.4,5.8 -11.17056,61.65382 -16.97056,65.05382 z"
         inkscape:transform-center-x="-0.3129717"
         inkscape:transform-center-y="-0.76967179"
         transform="matrix(0.69032118,0,0,0.73119432,-114.12507,-37.667718)" />
      <flowRoot
         transform="matrix(1.3793985,0.37831835,-0.37831835,1.3793985,-187.7914,-201.40889)"
         style="font-style:normal;font-weight:normal;font-size:40px;line-height:125%;font-family:sans-serif;letter-spacing:0px;word-spacing:0px;fill:#ffffff;fill-opacity:1;stroke:none;stroke-width:1px;stroke-linecap:butt;stroke-linejoin:miter;stroke-opacity:1"
         id="flowRoot4241"
         xml:space="preserve"><flowRegion
           id="flowRegion4243"><rect
             style="fill:#ffffff;fill-opacity:1"
             y="204.89473"
             x="411.18259"
             height="65.407379"
             width="72.832001"
             id="rect4245" /></flowRegion><flowPara
           style="font-style:normal;font-variant:normal;font-weight:normal;font-stretch:normal;font-size:40px;line-height:125%;font-family:'Estrangelo Edessa';-inkscape-font-specification:'Estrangelo Edessa, Normal';text-align:start;writing-mode:lr-tb;text-anchor:start;fill:#ffffff;fill-opacity:1"
           id="flowPara4247">G</flowPara></flowRoot>    </g>
    <flowRoot
       transform="matrix(1.3793985,0.37831835,-0.37831835,1.3793985,-287.7914,-201.40889)"
       style="font-style:normal;font-weight:normal;font-size:40px;line-height:125%;font-family:sans-serif;letter-spacing:0px;word-spacing:0px;fill:#ffffff;fill-opacity:1;stroke:none;stroke-width:1px;stroke-linecap:butt;stroke-linejoin:miter;stroke-opacity:1"
       id="flowRoot4158"
       xml:space="preserve"><flowRegion
         id="flowRegion4160"><rect
           style="fill:#ffffff;fill-opacity:1"
           y="204.89473"
           x="411.18259"
           height="65.407379"
           width="72.832001"
           id="rect4162" /></flowRegion><flowPara
         style="font-style:normal;font-variant:normal;font-weight:normal;font-stretch:normal;font-size:40px;line-height:125%;font-family:'Estrangelo Edessa';-inkscape-font-specification:'Estrangelo Edessa, Normal';text-align:start;writing-mode:lr-tb;text-anchor:start;fill:#ffffff;fill-opacity:1"
         id="flowPara4164">G</flowPara></flowRoot>    <path
       sodipodi:type="star"
       style="opacity:1;fill:#000000;fill-opacity:1;stroke:#000000;stroke-width:5;stroke-linecap:square;stroke-linejoin:miter;stroke-miterlimit:4;stroke-dasharray:none;stroke-opacity:1"
       id="path4176"
       sodipodi:sides="4"
       sodipodi:cx="620.13263"
       sodipodi:cy="431.52246"
       sodipodi:r1="47.539455"
       sodipodi:r2="23.76973"
       sodipodi:arg1="1.0405806"
       sodipodi:arg2="1.8259788"
       inkscape:flatsided="true"
       inkscape:rounded="0.1"
       inkscape:randomized="0"
       d="m 644.17426,472.53465 c -5.8,3.4 -61.65382,-11.17056 -65.05382,-16.97056 -3.4,-5.8 11.17056,-61.65382 16.97056,-65.05382 5.8,-3.4 61.65382,11.17056 65.05382,16.97056 3.4,5.8 -11.17056,61.65382 -16.97056,65.05382 z"
       inkscape:transform-center-x="-0.3129717"
       inkscape:transform-center-y="-0.76967179"
       transform="matrix(0.69032118,0,0,0.73119432,85.87493,-37.667718)" />
    <g
       transform="matrix(1.3793985,0.37831835,-0.37831835,1.3793985,-187.7914,-201.40889)"
       style="font-style:normal;font-weight:normal;font-size:40px;line-height:125%;font-family:sans-serif;letter-spacing:0px;word-spacing:0px;fill:#ffffff;fill-opacity:1;stroke:none;stroke-width:1px;stroke-linecap:butt;stroke-linejoin:miter;stroke-opacity:1"
       id="flowRoot4183">
      <path
         style="font-style:normal;font-variant:normal;font-weight:normal;font-stretch:normal;font-size:40px;line-height:125%;font-family:'Estrangelo Edessa';-inkscape-font-specification:'Estrangelo Edessa, Normal';text-align:start;writing-mode:lr-tb;text-anchor:start;fill:#000000;fill-opacity:1"
         d="m 499.34766,247.50195 c -0.92444,0.0182 -1.60316,0.13608 -1.97852,0.36914 -4.00387,2.48606 -14.06193,43.32548 -11.71484,47.56641 2.3471,4.24088 40.90434,14.89623 44.9082,12.41016 4.00387,-2.48606 14.06193,-43.32744 11.71484,-47.56836 -2.12707,-3.84331 -33.99348,-12.95331 -42.92968,-12.77735 z m 15.13672,8.67383 c 2.11546,0.0235 4.35161,0.35737 6.70898,1.00391 2.62229,0.7192 5.02172,1.72568 7.19726,3.01758 2.19351,1.29683 4.11484,2.84633 5.76368,4.65039 l -1.58789,5.79296 c -1.54366,-2.25799 -3.32884,-4.12852 -5.35547,-5.61132 -2.02663,-1.48281 -4.28859,-2.56724 -6.78516,-3.25196 -4.9213,-1.34973 -8.99818,-0.9901 -12.23047,1.07813 -3.21432,2.07315 -5.56796,5.83128 -7.06054,11.27344 -1.48766,5.42419 -1.37884,9.84663 0.32812,13.26953 1.72492,3.42781 5.04941,5.81823 9.9707,7.16797 1.92182,0.52708 3.67996,0.83529 5.27735,0.92578 1.6023,0.0725 3.10255,-0.0768 4.49804,-0.44727 l 2.9629,-10.80273 -8.89063,-2.43946 1.22656,-4.47265 14.2793,3.91797 -4.73633,17.26953 c -2.51028,0.91442 -5.1385,1.40858 -7.88281,1.48633 -2.73938,0.0598 -5.54618,-0.30364 -8.41992,-1.0918 -6.28633,-1.72411 -10.70451,-4.90555 -13.25586,-9.54492 -2.52847,-4.65242 -2.8937,-10.25677 -1.09571,-16.8125 1.80293,-6.5737 4.97632,-11.20679 9.51954,-13.90039 2.85381,-1.69165 6.04258,-2.51763 9.56836,-2.47852 z"
         transform="matrix(0.6742373,-0.18491853,0.18491853,0.6742373,29.012743,138.05498)"
         id="path4220"
         inkscape:connector-curvature="0" />
    </g>
  </g>
</svg>
