<?xml version="1.0" encoding="UTF-8" standalone="no"?>
<!-- Created with Inkscape (http://www.inkscape.org/) -->

<svg
   xmlns:osb="http://www.openswatchbook.org/uri/2009/osb"
   xmlns:dc="http://purl.org/dc/elements/1.1/"
   xmlns:cc="http://creativecommons.org/ns#"
   xmlns:rdf="http://www.w3.org/1999/02/22-rdf-syntax-ns#"
   xmlns:svg="http://www.w3.org/2000/svg"
   xmlns="http://www.w3.org/2000/svg"
   xmlns:xlink="http://www.w3.org/1999/xlink"
   xmlns:sodipodi="http://sodipodi.sourceforge.net/DTD/sodipodi-0.dtd"
   xmlns:inkscape="http://www.inkscape.org/namespaces/inkscape"
   width="1466.3676"
   height="604.13239"
   viewBox="0 0 1466.3676 604.13239"
   id="svg2"
   version="1.1"
   inkscape:version="0.91 r13725"
   sodipodi:docname="giving-jar-icon-with-text.svg"
   inkscape:export-filename="/Users/egillespie/Pictures/Giving Jar/Logo/giving-jar-neo-website.png"
   inkscape:export-xdpi="90"
   inkscape:export-ydpi="90">
  <defs
     id="defs4">
    <linearGradient
       osb:paint="solid"
       id="linearGradient6163">
      <stop
         id="stop6165"
         offset="0"
         style="stop-color:#242424;stop-opacity:1;" />
    </linearGradient>
    <linearGradient
       gradientUnits="userSpaceOnUse"
       y2="241.29906"
       x2="398.44223"
       y1="241.29906"
       x1="372.97348"
       id="linearGradient6167"
       xlink:href="#linearGradient6163"
       inkscape:collect="always" />
    <linearGradient
       inkscape:collect="always"
       xlink:href="#linearGradient6163"
       id="linearGradient4428"
       gradientUnits="userSpaceOnUse"
       x1="372.97348"
       y1="241.29906"
       x2="398.44223"
       y2="241.29906" />
  </defs>
  <sodipodi:namedview
     id="base"
     pagecolor="#ffffff"
     bordercolor="#666666"
     borderopacity="1.0"
     inkscape:pageopacity="0"
     inkscape:pageshadow="2"
     inkscape:zoom="0.3727174"
     inkscape:cx="533.51218"
     inkscape:cy="62.978133"
     inkscape:document-units="px"
     inkscape:current-layer="layer1"
     showgrid="false"
     inkscape:window-width="1436"
     inkscape:window-height="855"
     inkscape:window-x="4"
     inkscape:window-y="1"
     inkscape:window-maximized="1"
     inkscape:snap-page="true"
     inkscape:snap-grids="false"
     inkscape:snap-bbox="true"
     inkscape:snap-others="true"
     inkscape:bbox-paths="false"
     inkscape:bbox-nodes="true"
     inkscape:snap-nodes="false"
     fit-margin-left="75"
     fit-margin-top="75"
     fit-margin-right="75"
     fit-margin-bottom="75"
     units="px" />
  <metadata
     id="metadata7">
    <rdf:RDF>
      <cc:Work
         rdf:about="">
        <dc:format>image/svg+xml</dc:format>
        <dc:type
           rdf:resource="http://purl.org/dc/dcmitype/StillImage" />
        <dc:title />
      </cc:Work>
    </rdf:RDF>
  </metadata>
  <g
     inkscape:label="Layer 1"
     inkscape:groupmode="layer"
     id="layer1"
     transform="translate(-59.729597,-107.51385)">
    <flowRoot
       xml:space="preserve"
       id="flowRoot4202"
       style="font-style:normal;font-weight:normal;font-size:40px;line-height:125%;font-family:sans-serif;letter-spacing:0px;word-spacing:0px;fill:#000000;fill-opacity:1;stroke:none;stroke-width:1px;stroke-linecap:butt;stroke-linejoin:miter;stroke-opacity:1"
       transform="translate(0,861.02362)"><flowRegion
         id="flowRegion4204"><rect
           id="rect4206"
           width="257.06601"
           height="41.542145"
           x="38.41761"
           y="139.16652" /></flowRegion><flowPara
         id="flowPara4208">Direct</flowPara></flowRoot>    <g
       id="g5007"
       transform="translate(8.546403e-6,-30.583646)">
      <path
         sodipodi:nodetypes="ccccc"
         inkscape:connector-curvature="0"
         id="rect4217"
         d="m 257.04318,218.94526 242.47733,71.94899 -8.87687,56.0641 -253.69011,-76.15375 z"
         style="opacity:1;fill:#ffffff;fill-opacity:1;stroke:#000000;stroke-width:0;stroke-linecap:square;stroke-linejoin:miter;stroke-miterlimit:4;stroke-dasharray:none;stroke-opacity:1" />
      <path
         inkscape:connector-curvature="0"
         id="rect4174"
         d="m 236.87327,273.70659 c -5.7587,0.11322 -9.9915,0.84762 -12.32976,2.2995 -24.94145,15.48654 -87.5991,269.89674 -72.97823,296.31489 14.62082,26.41821 254.80971,92.77912 279.75115,77.29258 24.94144,-15.48649 87.5991,-269.88937 72.97823,-296.30758 C 491.04454,329.36452 292.54,272.61044 236.87327,273.70659 Z"
         style="opacity:1;fill:#ffffff;fill-opacity:1;stroke:#ffffff;stroke-width:0;stroke-linecap:square;stroke-linejoin:miter;stroke-miterlimit:4;stroke-dasharray:none;stroke-opacity:1" />
      <path
         style="opacity:1;fill:none;fill-opacity:1;stroke:#000000;stroke-width:0;stroke-linecap:square;stroke-linejoin:miter;stroke-miterlimit:4;stroke-dasharray:none;stroke-opacity:1"
         d="m 257.04318,218.94526 242.47733,71.94899 -8.87687,56.0641 -253.69011,-76.15375 z"
         id="path4867"
         inkscape:connector-curvature="0"
         sodipodi:nodetypes="ccccc" />
      <path
         sodipodi:nodetypes="asssssccsacscsssssca"
         inkscape:connector-curvature="0"
         id="path4169-7"
         d="m 512.24012,313.27655 c 5.27918,-5.79864 0.92291,-15.86213 -3.19748,-23.30714 -4.12038,-7.44512 -9.85761,-10.15508 -17.63517,-14.33987 -7.77766,-4.18474 -17.6537,-8.5134 -29.10984,-12.96264 -22.91233,-8.8985 -52.07829,-18.21092 -81.56201,-26.35776 -29.48372,-8.14673 -59.22676,-15.10908 -83.3232,-19.19978 -12.04822,-2.04535 -22.65354,-3.3823 -31.36998,-3.75516 -4.35825,-0.18638 -8.10732,-0.42776 -11.64091,-0.0801 -3.5336,0.34766 -6.85662,1.28473 -10.37099,3.4669 -7.02889,4.36433 -15.25551,11.18954 -13.53828,18.68737 1.45765,6.36435 17.24976,9.27963 17.24976,9.27963 3.37819,-7.04411 7.49452,-11.16033 6.07741,-10.28046 -1.417,0.87987 3.98373,-0.91122 11.43686,-0.59246 7.45308,0.31882 17.51507,1.54907 29.09473,3.5149 23.15937,3.93167 52.4927,10.77594 81.50145,18.79147 29.0088,8.01552 57.75673,17.22076 79.77808,25.77319 11.0107,4.27628 20.35804,8.40772 27.00841,11.9859 6.65038,3.57824 10.54401,7.9383 9.71338,6.4373 -0.83074,-1.50096 0.85274,4.21955 0.55181,12.11396 0,0 14.99299,5.59496 19.33597,0.8246 z"
         style="color:#000000;font-style:normal;font-variant:normal;font-weight:normal;font-stretch:normal;font-size:medium;line-height:normal;font-family:sans-serif;text-indent:0;text-align:start;text-decoration:none;text-decoration-line:none;text-decoration-style:solid;text-decoration-color:#000000;letter-spacing:normal;word-spacing:normal;text-transform:none;direction:ltr;block-progression:tb;writing-mode:lr-tb;baseline-shift:baseline;text-anchor:start;white-space:normal;clip-rule:nonzero;display:inline;overflow:visible;visibility:visible;opacity:1;isolation:auto;mix-blend-mode:normal;color-interpolation:sRGB;color-interpolation-filters:linearRGB;solid-color:#000000;solid-opacity:1;fill:#242424;fill-opacity:1;fill-rule:nonzero;stroke:none;stroke-width:5;stroke-linecap:square;stroke-linejoin:miter;stroke-miterlimit:4;stroke-dasharray:none;stroke-dashoffset:0;stroke-opacity:1;color-rendering:auto;image-rendering:auto;shape-rendering:auto;text-rendering:auto;enable-background:accumulate" />
      <path
         style="color:#000000;font-style:normal;font-variant:normal;font-weight:normal;font-stretch:normal;font-size:medium;line-height:normal;font-family:sans-serif;text-indent:0;text-align:start;text-decoration:none;text-decoration-line:none;text-decoration-style:solid;text-decoration-color:#000000;letter-spacing:normal;word-spacing:normal;text-transform:none;direction:ltr;block-progression:tb;writing-mode:lr-tb;baseline-shift:baseline;text-anchor:start;white-space:normal;clip-rule:nonzero;display:inline;overflow:visible;visibility:visible;opacity:1;isolation:auto;mix-blend-mode:normal;color-interpolation:sRGB;color-interpolation-filters:linearRGB;solid-color:#000000;solid-opacity:1;fill:#242424;fill-opacity:1;fill-rule:nonzero;stroke:none;stroke-width:5;stroke-linecap:square;stroke-linejoin:miter;stroke-miterlimit:4;stroke-dasharray:none;stroke-dashoffset:0;stroke-opacity:1;color-rendering:auto;image-rendering:auto;shape-rendering:auto;text-rendering:auto;enable-background:accumulate"
         d="m 505.51242,340.18734 c 5.27918,-5.79869 0.92297,-15.86218 -3.19748,-23.30719 -4.12038,-7.44507 -9.85761,-10.15502 -17.63517,-14.33981 -7.77766,-4.18474 -17.6537,-8.5134 -29.10984,-12.9627 -22.91233,-8.89849 -52.07829,-18.21086 -81.56196,-26.3577 -29.48377,-8.14679 -59.22681,-15.10909 -83.32325,-19.19978 -12.04822,-2.0454 -22.65354,-3.3823 -31.36998,-3.75516 -4.35825,-0.18638 -8.10732,-0.42776 -11.64091,-0.0801 -3.53359,0.34766 -6.85656,1.28473 -10.37098,3.46689 -7.0289,4.36434 -15.25552,11.18955 -13.53823,18.68743 1.45759,6.36435 17.2497,9.27963 17.2497,9.27963 3.37819,-7.04411 7.49452,-11.16039 6.07741,-10.28046 -1.417,0.87987 3.98373,-0.91127 11.43686,-0.59246 7.45313,0.31882 17.51507,1.54902 29.09473,3.51485 23.15937,3.93166 52.4927,10.77594 81.5015,18.79146 29.00875,8.01563 57.75668,17.22076 79.77803,25.77326 11.0107,4.27621 20.35804,8.40766 27.00842,11.98584 6.65037,3.57829 10.54406,7.93835 9.71337,6.43735 -0.83074,-1.50096 0.85274,4.21955 0.55182,12.11396 0,0 14.99298,5.59496 19.33596,0.8246 z"
         id="path4192"
         inkscape:connector-curvature="0"
         sodipodi:nodetypes="asssssccsacscsssssca" />
      <path
         sodipodi:nodetypes="zsscz"
         inkscape:connector-curvature="0"
         id="rect4164"
         d="m 338.14485,531.38161 c -63.2797,36.76777 -197.19397,38.63336 -197.19397,38.63336 -29.63089,5.80516 254.80245,92.77907 279.74384,77.29253 24.9415,-15.48654 87.5991,-269.88943 72.97828,-296.30758 0,0 -92.24845,143.61386 -155.52815,180.38169 z"
         style="opacity:0.5;fill:#52c6d2;fill-opacity:0.58039216;stroke:#ffffff;stroke-width:0;stroke-linecap:square;stroke-linejoin:miter;stroke-miterlimit:4;stroke-dasharray:none;stroke-opacity:1" />
      <g
         id="flowRoot4183"
         style="font-style:normal;font-weight:normal;font-size:40px;line-height:125%;font-family:sans-serif;letter-spacing:0px;word-spacing:0px;fill:#87decd;fill-opacity:1;stroke:none;stroke-width:1px;stroke-linecap:butt;stroke-linejoin:miter;stroke-opacity:1"
         transform="matrix(5.1556508,1.4140057,-1.4140057,5.1556508,-1326.923,-1324.7657)">
        <path
           inkscape:connector-curvature="0"
           id="path4220"
           d="m 371.00501,223.6865 c -0.61993,0.18322 -1.05575,0.38821 -1.26573,0.61476 -2.23984,2.41658 -1.4694,31.81196 0.89733,34.23733 2.36672,2.42534 30.33382,2.47963 32.57365,0.063 2.23984,-2.41659 1.46903,-31.81329 -0.89769,-34.23865 -2.14485,-2.19797 -25.31498,-2.44759 -31.30756,-0.67648 z m 11.80969,3.04916 c 1.43067,-0.37534 3.0001,-0.56374 4.70909,-0.56374 1.90104,0 3.70494,0.23491 5.41067,0.70366 1.71875,0.46875 3.30071,1.15819 4.74603,2.06965 l 6.1e-4,4.19946 c -1.45834,-1.23697 -3.00787,-2.16803 -4.6485,-2.79303 -1.64062,-0.62501 -3.36625,-0.93789 -5.17615,-0.93789 -3.56772,0 -6.25,0.99637 -8.04687,2.98855 -1.78386,1.99219 -2.67582,4.96129 -2.67582,8.9066 0,3.93229 0.89116,6.89394 2.67502,8.88614 1.79687,1.99219 4.4804,2.98914 8.0481,2.98914 1.39323,0 2.63563,-0.1173 3.72938,-0.35168 1.09374,-0.24741 2.07766,-0.6255 2.95004,-1.13334 l 8e-5,-7.8315 -6.4455,-7.3e-4 -8e-5,-3.24244 10.35214,0.001 4e-5,12.51959 c -1.52343,1.08073 -3.20409,1.89992 -5.04003,2.45982 -1.83593,0.54688 -3.79559,0.82086 -5.87892,0.82087 -4.5573,-1e-5 -8.12451,-1.32805 -10.70263,-3.98429 -2.5651,-2.66928 -3.8477,-6.3804 -3.84771,-11.133 1e-5,-4.76563 1.28288,-8.47625 3.84799,-11.1325 1.61133,-1.6683 3.60858,-2.81487 5.99302,-3.44048 z"
           style="font-style:normal;font-variant:normal;font-weight:normal;font-stretch:normal;font-size:40px;line-height:125%;font-family:'Estrangelo Edessa';-inkscape-font-specification:'Estrangelo Edessa, Normal';text-align:start;writing-mode:lr-tb;text-anchor:start;fill:#00c5fe;fill-opacity:1" />
      </g>
      <g
         id="flowRoot4158"
         style="font-style:normal;font-weight:normal;font-size:40px;line-height:125%;font-family:sans-serif;letter-spacing:0px;word-spacing:0px;fill:url(#linearGradient6167);fill-opacity:1;stroke:none;stroke-width:1px;stroke-linecap:butt;stroke-linejoin:miter;stroke-opacity:1"
         transform="matrix(5.1556508,1.4140057,-1.4140057,5.1556508,-1326.923,-1324.7657)">
        <path
           inkscape:connector-curvature="0"
           id="path4282"
           style="font-style:normal;font-variant:normal;font-weight:normal;font-stretch:normal;font-size:40px;line-height:125%;font-family:'Estrangelo Edessa';-inkscape-font-specification:'Estrangelo Edessa, Normal';text-align:start;writing-mode:lr-tb;text-anchor:start;fill:url(#linearGradient4428);fill-opacity:1"
           d="m 394.53598,251.69945 0,-7.83203 -6.44531,0 0,-3.24219 10.35156,0 0,12.51953 q -2.28515,1.6211 -5.03906,2.46094 -2.7539,0.82031 -5.8789,0.82031 -6.83594,0 -10.70313,-3.98437 -3.84766,-4.00391 -3.84766,-11.13281 0,-7.14844 3.84766,-11.13282 3.86719,-4.0039 10.70313,-4.0039 2.85156,0 5.41015,0.70312 2.57813,0.70313 4.7461,2.07032 l 0,4.19921 q -2.1875,-1.85546 -4.64844,-2.79296 -2.46094,-0.9375 -5.17578,-0.9375 -5.35157,0 -8.04688,2.98828 -2.67578,2.98828 -2.67578,8.90625 0,5.89843 2.67578,8.88672 2.69531,2.98828 8.04688,2.98828 2.08984,0 3.73047,-0.35157 1.64062,-0.37109 2.94921,-1.13281 z" />
      </g>
      <path
         transform="matrix(4.3002499,0,0,4.5548629,-2342.5337,-1498.9756)"
         inkscape:transform-center-y="-1.282787"
         inkscape:transform-center-x="-0.52162337"
         d="m 644.17426,472.53465 c -5.8,3.4 -61.65382,-11.17056 -65.05382,-16.97056 -3.4,-5.8 11.17056,-61.65382 16.97056,-65.05382 5.8,-3.4 61.65382,11.17056 65.05382,16.97056 3.4,5.8 -11.17056,61.65382 -16.97056,65.05382 z"
         inkscape:randomized="0"
         inkscape:rounded="0.1"
         inkscape:flatsided="true"
         sodipodi:arg2="1.8259788"
         sodipodi:arg1="1.0405806"
         sodipodi:r2="23.76973"
         sodipodi:r1="47.539455"
         sodipodi:cy="431.52246"
         sodipodi:cx="620.13263"
         sodipodi:sides="4"
         id="path4169"
         style="opacity:1;fill:none;fill-opacity:1;stroke:#242424;stroke-width:5.00039482;stroke-linecap:square;stroke-linejoin:miter;stroke-miterlimit:4;stroke-dasharray:none;stroke-opacity:1"
         sodipodi:type="star" />
      <text
         sodipodi:linespacing="125%"
         id="text4432"
         y="414.06339"
         x="585.04816"
         style="font-style:normal;font-weight:normal;font-size:246.23272705px;line-height:125%;font-family:sans-serif;letter-spacing:0px;word-spacing:0px;fill:#000000;fill-opacity:1;stroke:none;stroke-width:1px;stroke-linecap:butt;stroke-linejoin:miter;stroke-opacity:1"
         xml:space="preserve"><tspan
           style="font-style:normal;font-variant:normal;font-weight:normal;font-stretch:normal;font-size:215.45362854px;font-family:'Estrangelo Edessa';-inkscape-font-specification:'Estrangelo Edessa';fill:#404040;fill-opacity:1"
           y="414.06339"
           x="585.04816"
           id="tspan4434"
           sodipodi:role="line">Giving Jar</tspan></text>
      <text
         sodipodi:linespacing="100%"
         id="text4432-8"
         y="541.5058"
         x="599.63757"
         style="font-style:normal;font-weight:normal;font-size:246.23272705px;line-height:100%;font-family:sans-serif;letter-spacing:0px;word-spacing:0px;fill:#000000;fill-opacity:1;stroke:none;stroke-width:1px;stroke-linecap:butt;stroke-linejoin:miter;stroke-opacity:1"
         xml:space="preserve"><tspan
           id="tspan4192"
           style="font-style:italic;font-variant:normal;font-weight:normal;font-stretch:normal;font-size:76.94772339px;line-height:100%;font-family:'Estrangelo Edessa';-inkscape-font-specification:'Estrangelo Edessa';fill:#606060;fill-opacity:1"
           y="541.5058"
           x="599.63757"
           sodipodi:role="line">Promoting Lansing charities</tspan><tspan
           id="tspan4196"
           style="font-style:italic;font-variant:normal;font-weight:normal;font-stretch:normal;font-size:76.94772339px;line-height:100%;font-family:'Estrangelo Edessa';-inkscape-font-specification:'Estrangelo Edessa';fill:#606060;fill-opacity:1"
           y="618.45349"
           x="599.63757"
           sodipodi:role="line">and online giving.</tspan></text>
    </g>
  </g>
</svg>
